<svg xmlns="http://www.w3.org/2000/svg" width="16" height="16" viewBox="0 0 16 16"><g fill="none" fill-rule="evenodd"><rect width="13" height="5" x="1.5" y="1.5" stroke="#000001" stroke-linecap="round" stroke-linejoin="round" rx="1"/><path fill="#000001" fill-rule="nonzero" d="M4.25,3.25 C3.83578644,3.25 3.5,3.58578644 3.5,4 C3.5,4.41421356 3.83578644,4.75 4.25,4.75 C4.66421356,4.75 5,4.41421356 5,4 C4.99461419,3.58803794 4.66196206,3.25538581 4.25,3.25 L4.25,3.25 Z"/><line x1="7" x2="9" y1="4" y2="4" stroke="#000001" stroke-linecap="round" stroke-linejoin="round"/><path stroke="#000001" stroke-linecap="round" stroke-linejoin="round" d="M2.5,6.5 C1.94771525,6.5 1.5,6.94771525 1.5,7.5 L1.5,10.5 C1.5,11.0522847 1.94771525,11.5 2.5,11.5 L13.5,11.5 C14.0522847,11.5 14.5,11.0522847 14.5,10.5 L14.5,7.5 C14.5,6.94771525 14.0522847,6.5 13.5,6.5"/><path fill="#000001" fill-rule="nonzero" d="M4.25,8.25 C3.83578644,8.25 3.5,8.58578644 3.5,9 C3.5,9.41421356 3.83578644,9.75 4.25,9.75 C4.66421356,9.75 5,9.41421356 5,9 C4.99461419,8.58803794 4.66196206,8.25538581 4.25,8.25 L4.25,8.25 Z"/><line x1="7" x2="9" y1="9" y2="9" stroke="#000001" stroke-linecap="round" stroke-linejoin="round"/><line x1="8" x2="8" y1="11.5" y2="14.5" stroke="#000001" stroke-linecap="round" stroke-linejoin="round"/><line x1="3" x2="13" y1="14.5" y2="14.5" stroke="#000001" stroke-linecap="round" stroke-linejoin="round"/></g></svg>